<?xml version="1.0" encoding="UTF-8" standalone="no"?>

<svg
   x="0px"
   y="0px"
   viewBox="0 0 103.92155 133.33333"
   xmlSpace="preserve"
   id="svg38"
   width="103.92155"
   height="133.33333"
   xmlns="http://www.w3.org/2000/svg"
   xmlnsSvg="http://www.w3.org/2000/svg">
   <defs
   id="defs38"><clipPath
     clipPathUnits="userSpaceOnUse"
     id="clipPath38"><rect
       style="opacity:0.51;fill:#022cc5;stroke:#0000a9;stroke-width:0"
       id="rect39"
       width="103.92155"
       height="133.33333"
       x="72.549019"
       y="43.137257"
       ry="0.98039216" /></clipPath>
       </defs>
<g
   id="BACKGROUND"
   clip-path="url(#clipPath38)"
   transform="translate(-72.549019,-43.137257)"
   style="fill:#022c43;fill-opacity:1">
	<linearGradient
   id="SVGID_1_"
   gradientUnits="userSpaceOnUse"
   x1="0"
   y1="500"
   x2="500"
   y2="4.5474741e-13">
		<stop
   offset="0"
   style="stop-color:#FFFFFF"
   id="stop1" />
		<stop
   offset="1"
   style="stop-color:#ECEFF1"
   id="stop2" />
	</linearGradient>
	<rect
   style="fill:#022c43;fill-opacity:1"
   width="500"
   height="500"
   id="rect2"
   x="0"
   y="0" />
</g>
<g
   id="OBJECTS"
   transform="translate(-72.549019,-43.137257)">
	<g
   id="g9">
		
			<linearGradient
   id="SVGID_00000022554046022919191660000017196675300215987616_"
   gradientUnits="userSpaceOnUse"
   x1="69.280998"
   y1="148.6665"
   x2="156.95889"
   y2="60.988602">
			<stop
   offset="0"
   style="stop-color:#FFD727"
   id="stop3" />
			<stop
   offset="1"
   style="stop-color:#FF5A1C"
   id="stop4" />
		</linearGradient>
		<path
   style="fill:url(#SVGID_00000022554046022919191660000017196675300215987616_)"
   d="M 124.039,47.124 C 99.031,47.221 78.578,68.498 78.578,93.506 v 52.324 c 0,16.179 13.115,29.294 29.294,29.294 v 0 -39.757 -42.2 c 0,-8.331 6.761,-16.066 15.068,-16.701 10.207,-0.781 18.657,7.877 17.524,18.146 -0.806,7.307 -6.568,13.28 -13.845,14.326 -5.61,0.807 -10.765,-1.27 -14.25,-4.947 v 18.823 c 0,9.108 7.882,16.322 16.933,15.305 0.153,-0.017 0.307,-0.035 0.46,-0.054 21.771,-2.668 38.776,-20.75 40.022,-42.648 1.504,-26.424 -19.616,-48.394 -45.745,-48.293 z"
   id="path4 letterP" />
		<g
   id="g8">
			
				<linearGradient
   id="SVGID_00000055704952109958980050000007453430621521808793_"
   gradientUnits="userSpaceOnUse"
   x1="53.435001"
   y1="163.75079"
   x2="155.4912"
   y2="61.694698">
				<stop
   offset="0"
   style="stop-color:#FF5A1C"
   id="stop5" />
				<stop
   offset="1"
   style="stop-color:#FFD727"
   id="stop6" />
			</linearGradient>
			<path
   style="fill:url(#SVGID_00000055704952109958980050000007453430621521808793_)"
   d="m 124.039,47.124 c -0.9,0.004 -1.791,0.044 -2.678,0.1 -0.367,0.024 -0.731,0.058 -1.095,0.091 -0.474,0.042 -0.945,0.091 -1.415,0.147 -0.508,0.062 -1.016,0.127 -1.519,0.207 -0.192,0.03 -0.382,0.066 -0.573,0.098 -12.892,2.219 -24,10.074 -30.86,20.844 6.877,-5.831 15.767,-9.361 25.49,-9.361 21.79,0 39.454,17.664 39.454,39.454 0,18.336 -12.515,33.733 -29.465,38.157 2.354,1.075 5.018,1.554 7.793,1.267 0.198,-0.022 0.394,-0.037 0.592,-0.062 21.771,-2.668 38.776,-20.75 40.022,-42.648 1.503,-26.425 -19.617,-48.395 -45.746,-48.294 z"
   id="path6" />
			
				<linearGradient
   id="SVGID_00000001623428849602674130000014669453412119412874_"
   gradientUnits="userSpaceOnUse"
   x1="65.389603"
   y1="175.7054"
   x2="167.4455"
   y2="73.649399">
				<stop
   offset="0"
   style="stop-color:#FF5A1C"
   id="stop7" />
				<stop
   offset="1"
   style="stop-color:#FFD727"
   id="stop8" />
			</linearGradient>
			<path
   style="fill:url(#SVGID_00000001623428849602674130000014669453412119412874_)"
   d="m 78.578,120.615 v 25.215 c 0,16.179 13.115,29.294 29.294,29.294 v -37.13 c -12.215,-1.08 -22.83,-7.719 -29.294,-17.379 z"
   id="path8" />
		</g>
	</g>
	<g
   id="g14">
		<g
   id="g10">
			
				<linearGradient
   id="SVGID_00000006689678318033544190000003855859398015284120_"
   gradientUnits="userSpaceOnUse"
   x1="411.25339"
   y1="53.0951"
   x2="352.0878"
   y2="102.0917">
				<stop
   offset="0"
   style="stop-color:#FFD727"
   id="stop9" />
				<stop
   offset="1"
   style="stop-color:#FF5A1C"
   id="stop10" />
			</linearGradient>
			<path
   style="fill:url(#SVGID_00000006689678318033544190000003855859398015284120_)"
   d="m 385.369,47.124 h -43.637 v 0.786 c 0,14.883 12.065,26.948 26.948,26.948 h 17.046 c 6.035,0 11.318,4.47 11.883,10.478 0.649,6.895 -4.78,12.714 -11.544,12.714 h -16.137 v 27.734 h 16.137 c 21.458,0 38.958,-17.273 39.324,-38.646 0.378,-22.005 -18.013,-40.014 -40.02,-40.014 z"
   id="path10" />
		</g>
		<g
   id="g12">
			
				<linearGradient
   id="SVGID_00000151510456028411918070000013895334146872642440_"
   gradientUnits="userSpaceOnUse"
   x1="349.66379"
   y1="53.8563"
   x2="385.16391"
   y2="94.3563">
				<stop
   offset="0"
   style="stop-color:#FFD727"
   id="stop11" />
				<stop
   offset="1"
   style="stop-color:#FF5A1C"
   id="stop12" />
			</linearGradient>
			<path
   style="fill:url(#SVGID_00000151510456028411918070000013895334146872642440_)"
   d="m 352.732,47.91 v -0.786 h -11 v 0.786 c 0,14.883 12.065,26.948 26.948,26.948 h 11 c -14.883,0 -26.948,-12.065 -26.948,-26.948 z"
   id="path12" />
		</g>
		
			<linearGradient
   id="SVGID_00000050661340097861246120000017603150083635952053_"
   gradientUnits="userSpaceOnUse"
   x1="377.8461"
   y1="97.3293"
   x2="336.34601"
   y2="171.3293">
			<stop
   offset="0"
   style="stop-color:#FFD727"
   id="stop13" />
			<stop
   offset="1"
   style="stop-color:#FF6E3B"
   id="stop14" />
		</linearGradient>
		<path
   style="fill:url(#SVGID_00000050661340097861246120000017603150083635952053_)"
   d="m 385.494,98.05 h -15.598 c -15.555,0 -28.165,12.61 -28.165,28.164 v 20.071 c -0.328,11.943 -6.4,22.446 -15.566,28.838 h 15.598 c 15.555,0 28.165,-12.61 28.165,-28.165 v -20.071 c 0.328,-11.941 6.4,-22.444 15.566,-28.837 z"
   id="path14" />
	</g>
	<g
   id="g22">
		
			<linearGradient
   id="SVGID_00000074422919185412510790000003396251879871914375_"
   gradientUnits="userSpaceOnUse"
   x1="360.86041"
   y1="411.53671"
   x2="348.86041"
   y2="372.53659">
			<stop
   offset="0"
   style="stop-color:#FFD727"
   id="stop15" />
			<stop
   offset="1"
   style="stop-color:#FF6E3B"
   id="stop16" />
		</linearGradient>
		<path
   style="fill:url(#SVGID_00000074422919185412510790000003396251879871914375_)"
   d="m 335.052,416.984 v 0 -53.027 h 38.654 v 14.374 c -0.001,21.347 -17.306,38.653 -38.654,38.653 z"
   id="path16" />
		
			<linearGradient
   id="SVGID_00000035532518014722670830000003018566616061442210_"
   gradientUnits="userSpaceOnUse"
   x1="330.52499"
   y1="393.57571"
   x2="363.68491"
   y2="360.4158">
			<stop
   offset="0"
   style="stop-color:#FF6E3B"
   id="stop17" />
			<stop
   offset="1"
   style="stop-color:#FFA231"
   id="stop18" />
		</linearGradient>
		<path
   style="opacity:0.47;fill:url(#SVGID_00000035532518014722670830000003018566616061442210_)"
   d="m 373.705,375.487 v -11.531 h -38.654 v 36.578 c 0.001,0.001 4.261,-24.102 38.654,-25.047 z"
   id="path18" />
		
			<linearGradient
   id="SVGID_00000057126008254095921390000003645785410445556392_"
   gradientUnits="userSpaceOnUse"
   x1="322.7402"
   y1="382.75391"
   x2="397.2963"
   y2="308.19769">
			<stop
   offset="0"
   style="stop-color:#FFD727"
   id="stop19" />
			<stop
   offset="1"
   style="stop-color:#FF6E3B"
   id="stop20" />
		</linearGradient>
		<path
   style="fill:url(#SVGID_00000057126008254095921390000003645785410445556392_)"
   d="m 375.781,288.984 c -22.494,0 -40.729,18.235 -40.729,40.729 v 70.822 c 0,0 4.41,-30.093 40.729,-30.093 22.494,0 40.729,-18.235 40.729,-40.729 0,-22.494 -18.235,-40.729 -40.729,-40.729 z"
   id="path20" />
		
			<linearGradient
   id="SVGID_00000091013900596796754930000010502967464144586911_"
   gradientUnits="userSpaceOnUse"
   x1="351.64529"
   y1="353.84879"
   x2="399.71039"
   y2="305.78369">
			<stop
   offset="0"
   style="stop-color:#FF6E3B"
   id="stop21" />
			<stop
   offset="1"
   style="stop-color:#FFD727"
   id="stop22" />
		</linearGradient>
		<path
   style="fill:url(#SVGID_00000091013900596796754930000010502967464144586911_)"
   d="m 375.781,288.984 c -15.53,0 -29.027,8.694 -35.897,21.479 6.954,-6.411 16.237,-10.332 26.441,-10.332 21.56,0 39.038,17.478 39.038,39.038 0,10.204 -3.921,19.487 -10.332,26.441 12.785,-6.87 21.479,-20.367 21.479,-35.897 0,-22.494 -18.235,-40.729 -40.729,-40.729 z"
   id="path22" />
	</g>
	<g
   id="g30">
		
			<linearGradient
   id="SVGID_00000060001795349322996530000016321468400837142144_"
   gradientUnits="userSpaceOnUse"
   x1="74.024101"
   y1="334.61899"
   x2="147.3181"
   y2="301.35941">
			<stop
   offset="0"
   style="stop-color:#FFD727"
   id="stop23" />
			<stop
   offset="1"
   style="stop-color:#FF5A1C"
   id="stop24" />
		</linearGradient>
		<path
   style="fill:url(#SVGID_00000060001795349322996530000016321468400837142144_)"
   d="m 95.352,327.786 h 75.722 v -8.683 c 0,-16.634 -13.484,-30.119 -30.119,-30.119 H 96.816 c -10.743,0 -19.451,8.709 -19.451,19.452 v 31.406 c 2.911,-7.073 9.864,-12.056 17.987,-12.056 z"
   id="path24" />
		
			<linearGradient
   id="SVGID_00000156559385380497274710000001631778400595486634_"
   gradientUnits="userSpaceOnUse"
   x1="98.863701"
   y1="328.49319"
   x2="183.1376"
   y2="328.49319"
   gradientTransform="rotate(90,145.0231,335.1436)">
			<stop
   offset="0"
   style="stop-color:#FFD727"
   id="stop25" />
			<stop
   offset="1"
   style="stop-color:#FF5A1C"
   id="stop26" />
		</linearGradient>
		<path
   style="fill:url(#SVGID_00000156559385380497274710000001631778400595486634_)"
   d="m 171.074,319.103 v 24.037 c 0,16.634 -13.484,30.119 -30.119,30.119 h -8.683 v -84.274 h 8.683 c 16.635,-0.001 30.119,13.484 30.119,30.118 z"
   id="path26" />
		
			<linearGradient
   id="SVGID_00000140720094050011573950000018308715450522879420_"
   gradientUnits="userSpaceOnUse"
   x1="73.8974"
   y1="375.79089"
   x2="160.8882"
   y2="334.48599">
			<stop
   offset="0"
   style="stop-color:#FFD727"
   id="stop27" />
			<stop
   offset="1"
   style="stop-color:#FF5A1C"
   id="stop28" />
		</linearGradient>
		<path
   style="fill:url(#SVGID_00000140720094050011573950000018308715450522879420_)"
   d="m 95.352,373.258 h 45.603 c 16.634,0 30.119,-13.485 30.119,-30.119 v -8.683 H 96.816 c -10.743,0 -19.451,8.709 -19.451,19.451 v 31.406 c 2.911,-7.072 9.864,-12.055 17.987,-12.055 z"
   id="path28" />
		
			<linearGradient
   id="SVGID_00000120553647446133921610000018083139730664677311_"
   gradientUnits="userSpaceOnUse"
   x1="88.606003"
   y1="407.98239"
   x2="153.96539"
   y2="342.62299">
			<stop
   offset="0"
   style="stop-color:#FFD727"
   id="stop29" />
			<stop
   offset="1"
   style="stop-color:#FF5A1C"
   id="stop30" />
		</linearGradient>
		<path
   style="fill:url(#SVGID_00000120553647446133921610000018083139730664677311_)"
   d="M 108.504,378.918 H 96.816 c -10.601,0 -19.205,8.485 -19.43,19.033 0.225,10.548 8.829,19.033 19.43,19.033 h 11.688 z"
   id="path30" />
	</g>
</g>

</svg>
